<svg version="1.1" id="Layer_1" xmlns="http://www.w3.org/2000/svg" xmlns:xlink="http://www.w3.org/1999/xlink" x="0px" y="0px"
	 width="100%" viewBox="0 0 1024 448" enable-background="new 0 0 1024 448" xml:space="preserve">
<path fill="#000000" opacity="1.000000" stroke="none" 
	d="
M147.777786,237.871155 
	C137.096283,243.034470 126.789764,248.116684 116.366722,252.947510 
	C113.228897,254.401825 111.795563,256.283752 111.919083,259.817108 
	C112.134300,265.973328 112.053467,272.144257 111.936272,278.305969 
	C111.871330,281.720154 113.312920,283.047516 116.713745,283.024536 
	C130.207001,282.933258 143.702652,283.111511 157.194717,282.956055 
	C166.848846,282.844818 173.718155,277.437622 175.894684,268.733063 
	C177.738800,261.357971 174.426620,255.486786 165.566345,250.378922 
	C164.874832,249.980240 164.255112,249.457047 163.718857,249.074982 
	C163.707245,247.278122 164.992416,246.986191 165.972183,246.495544 
	C172.672867,243.140091 179.460648,239.950974 186.077576,236.439178 
	C189.341141,234.707123 191.422073,235.416916 193.780472,238.085709 
	C211.649429,258.306305 205.714050,290.157288 181.613525,302.982086 
	C173.950867,307.059692 165.745193,309.045837 157.140244,309.089935 
	C134.984100,309.203583 112.826088,309.027069 90.671021,309.219757 
	C85.972816,309.260651 84.691658,307.547485 84.738289,303.066467 
	C84.932465,284.410187 84.917999,265.749847 84.745079,247.093155 
	C84.708725,243.170578 86.140808,241.133453 89.631599,239.477386 
	C111.597580,229.056351 133.459946,218.417084 155.369995,207.877899 
	C164.638107,203.419769 168.657684,195.361267 165.436523,187.319992 
	C163.042908,181.344543 158.317856,177.675217 152.152130,177.395660 
	C140.017410,176.845459 127.844353,177.143448 115.687195,177.083176 
	C112.455292,177.067154 111.947357,179.135071 111.959351,181.753250 
	C111.991409,188.749863 111.845573,195.749161 111.996262,202.742538 
	C112.070145,206.171967 110.762978,208.194962 107.692734,209.806396 
	C101.947975,212.821579 96.449623,216.304626 90.828293,219.557632 
	C89.289589,220.448059 87.897049,221.802567 85.822769,221.457748 
	C84.272667,219.958145 84.835159,218.024261 84.831665,216.280045 
	C84.792564,196.788864 84.940323,177.296036 84.714615,157.807404 
	C84.659142,153.017960 86.124680,151.501862 90.952950,151.555954 
	C111.940971,151.791122 132.957642,151.026215 153.917603,151.830856 
	C182.722580,152.936676 201.524002,181.143311 191.241302,206.367783 
	C187.648804,215.180557 181.711700,221.873581 172.936996,225.931564 
	C164.625183,229.775482 156.381653,233.767044 147.777786,237.871155 
z"/>
<path fill="#000000" opacity="1.000000" stroke="none" 
	d="
M575.046204,262.102295 
	C579.690369,256.166565 579.656433,256.193817 575.032898,250.436295 
	C566.067261,239.271637 557.140503,228.075806 548.209717,216.883240 
	C547.499817,215.993515 546.570007,215.191147 546.646484,213.811478 
	C547.379150,212.269485 548.883301,212.695938 550.112122,212.688797 
	C559.271179,212.635529 568.431763,212.731598 577.589355,212.600830 
	C580.414551,212.560501 582.172302,213.682327 583.801392,215.898270 
	C588.398560,222.151657 593.207642,228.249283 598.350952,234.952621 
	C603.395996,228.409576 608.059937,222.585480 612.453247,216.563889 
	C614.510315,213.744400 616.835388,212.489288 620.391296,212.561844 
	C630.180847,212.761566 639.977112,212.630829 649.764648,212.630829 
	C650.419617,215.753204 648.311523,217.036102 647.075745,218.606766 
	C638.223572,229.857788 629.403015,241.138672 620.283203,252.170898 
	C617.708984,255.284882 618.009644,257.354462 620.332825,260.301208 
	C629.609558,272.068054 638.690552,283.989410 647.817017,295.874298 
	C648.805054,297.160950 650.105164,298.312469 650.271179,300.046112 
	C649.281982,301.886230 647.606689,301.298431 646.224976,301.308075 
	C637.898682,301.366089 629.568542,301.206085 621.246765,301.408936 
	C618.025391,301.487488 616.010437,300.255096 614.173035,297.767334 
	C609.146301,290.961273 603.929626,284.295624 598.462585,277.148773 
	C592.810669,283.059814 588.271240,289.205811 584.068726,295.489075 
	C581.000732,300.076080 577.518738,301.735291 572.108154,301.460052 
	C563.680908,301.031342 555.215759,301.346680 546.766724,301.346680 
	C546.420227,300.859344 546.073730,300.372040 545.727295,299.884705 
	C555.427551,287.381714 565.127808,274.878754 575.046204,262.102295 
z"/>
<path fill="#000000" opacity="1.000000" stroke="none" 
	d="
M365.854492,223.078949 
	C364.460144,219.725235 362.349396,217.010529 362.350189,212.668686 
	C369.647095,212.668686 376.745789,212.667999 383.844482,212.669098 
	C386.176147,212.669464 388.521606,212.836151 390.836090,212.638290 
	C394.029846,212.365280 395.600983,213.807800 396.738983,216.705109 
	C403.005798,232.659790 409.424194,248.555038 415.824890,264.456879 
	C416.423676,265.944550 416.646118,267.661957 418.559906,269.220184 
	C422.617523,259.731628 426.618378,250.486343 430.526947,241.202209 
	C433.885040,233.225708 437.242523,225.245697 440.385376,217.183472 
	C441.641937,213.960007 443.427612,212.515305 447.043976,212.601501 
	C456.327515,212.822784 465.619812,212.675430 474.547699,212.675430 
	C475.794647,214.612061 474.994080,215.764069 474.436401,216.951035 
	C461.907837,243.617828 449.335388,270.264221 436.914093,296.980927 
	C435.450989,300.127808 433.657471,301.502228 430.110260,301.393311 
	C422.456268,301.158234 414.782104,301.109619 407.132263,301.403229 
	C403.144531,301.556274 401.214569,299.972443 399.619202,296.464569 
	C388.523956,272.068298 377.236542,247.759430 365.854492,223.078949 
z"/>
<path fill="#000000" opacity="1.000000" stroke="none" 
	d="
M224.889130,263.000000 
	C224.891266,248.173157 224.872665,233.846283 224.906128,219.519501 
	C224.922104,212.682999 224.975800,212.674713 231.984924,212.662643 
	C236.816055,212.654327 241.647186,212.643494 246.478317,212.636871 
	C253.725769,212.626938 253.725769,212.628098 254.826263,219.477936 
	C256.666077,219.256516 257.462097,217.618515 258.663177,216.603638 
	C267.537323,209.105331 282.853302,207.311020 293.110596,212.472610 
	C295.354279,213.601654 296.053986,214.999359 295.194366,217.246002 
	C292.577118,224.085983 289.893463,230.900909 287.326996,237.759750 
	C286.444336,240.118591 285.014801,240.740768 282.668518,240.011459 
	C279.644135,239.071365 276.536957,238.347427 273.346069,238.600494 
	C262.292358,239.477142 255.760712,245.599167 255.252991,256.774567 
	C254.686493,269.243958 254.996597,281.752594 254.894028,294.243896 
	C254.836655,301.228333 254.733627,301.307983 247.985840,301.320709 
	C242.988129,301.330139 237.990372,301.334473 232.992645,301.330902 
	C224.928650,301.325165 224.920944,301.321594 224.909927,293.486389 
	C224.895874,283.490936 224.895859,273.495453 224.889130,263.000000 
z"/>
<path fill="#000000" opacity="1.000000" stroke="none" 
	d="
M314.839722,259.000000 
	C314.838928,245.172379 314.988281,231.842148 314.756805,218.518555 
	C314.676025,213.870010 316.381226,212.358597 320.886932,212.563416 
	C327.371216,212.858154 333.879913,212.752762 340.374481,212.627365 
	C343.701599,212.563126 345.221100,213.713318 345.210052,217.229965 
	C345.126709,243.718262 345.120880,270.206970 345.173187,296.695374 
	C345.179962,300.134216 343.785736,301.423126 340.383606,301.349304 
	C333.556519,301.201141 326.718384,301.147827 319.895508,301.375946 
	C315.828674,301.511871 314.750671,299.704895 314.791412,295.983917 
	C314.924530,283.823883 314.840607,271.661499 314.839722,259.000000 
z"/>
<path fill="#000000" opacity="1.000000" stroke="none" 
	d="
M494.828796,222.059143 
	C494.839752,220.068741 494.907043,218.567291 494.849213,217.070648 
	C494.727478,213.919586 496.139771,212.571640 499.341095,212.622849 
	C506.502838,212.737396 513.668945,212.741837 520.830627,212.625854 
	C523.974854,212.574936 525.329651,213.712769 525.321228,216.977417 
	C525.252197,243.632645 525.251160,270.288177 525.314514,296.943420 
	C525.322144,300.149506 524.103638,301.405945 520.890808,301.345917 
	C514.062927,301.218384 507.221710,301.111603 500.403534,301.404633 
	C495.900665,301.598175 494.718201,299.741180 494.743622,295.519257 
	C494.889954,271.196960 494.823059,246.873398 494.828796,222.059143 
z"/>
<path fill="#000000" opacity="1.000000" stroke="none" 
	d="
M345.182556,182.185638 
	C345.173187,186.643356 345.117859,190.626953 345.174255,194.608948 
	C345.216522,197.595154 344.177643,199.294220 340.861725,199.248749 
	C333.560913,199.148636 326.257690,199.168243 318.955994,199.218353 
	C315.963867,199.238892 314.800812,197.770645 314.831757,194.922607 
	C314.891296,189.446747 314.903412,183.969788 314.868286,178.493713 
	C314.851013,175.798386 316.043091,174.590195 318.775055,174.607285 
	C326.408600,174.655060 334.044617,174.488968 341.676178,174.617188 
	C347.111633,174.708511 344.519226,179.086212 345.182556,182.185638 
z"/>
<path fill="#000000" opacity="1.000000" stroke="none" 
	d="
M517.652100,174.579498 
	C525.292297,174.560059 525.297791,174.560059 525.302368,181.912872 
	C525.305054,186.231216 525.221802,190.550751 525.301453,194.867462 
	C525.352905,197.657837 524.467163,199.266006 521.353943,199.234909 
	C513.880737,199.160263 506.405914,199.177490 498.932404,199.238541 
	C495.937744,199.263000 494.774170,197.810593 494.807861,194.950333 
	C494.870453,189.636169 494.909149,184.319717 494.818939,179.006577 
	C494.765533,175.862259 496.033539,174.512085 499.257690,174.581329 
	C505.233856,174.709641 511.215240,174.594025 517.652100,174.579498 
z"/>
<path fill="#000000" opacity="1.000000" stroke="none" 
	d="
M693.300903,299.305511 
	C692.506958,302.024719 691.300964,302.024475 690.432922,299.974640 
	C689.880493,298.669983 689.978027,297.041809 689.977905,295.558685 
	C689.975952,263.919373 689.981750,232.280029 690.061707,200.640869 
	C690.067627,198.302338 689.247620,195.611603 691.599548,193.794861 
	C691.907654,193.861877 692.075684,193.882095 692.231506,193.937042 
	C692.380005,193.989395 692.583252,194.041748 692.645081,194.157043 
	C692.873474,194.582886 693.226135,195.034515 693.226868,195.476929 
	C693.282471,229.945938 693.308960,264.415009 693.300903,299.305511 
z"/>
<path fill="#000000" opacity="1.000000" stroke="none" 
	d="
M834.014404,230.923553 
	C832.330078,234.448486 836.438171,236.492203 835.580017,239.635895 
	C829.614197,242.638153 829.850098,235.214584 826.676758,233.901123 
	C824.674011,234.998856 825.293335,236.742401 824.888367,238.088898 
	C824.438721,239.584045 823.556519,240.254852 822.005615,240.251465 
	C820.414429,240.247986 819.285950,239.442383 819.254456,237.982361 
	C819.140381,232.691299 819.208984,227.395264 819.290833,222.102402 
	C819.299927,221.511978 819.704773,220.794983 820.148804,220.368774 
	C821.504822,219.067551 830.716064,219.451096 832.658508,220.974991 
	C836.087891,223.665451 836.416931,226.967407 834.014404,230.923553 
z"/>
<path fill="#000000" opacity="1.000000" stroke="none" 
	d="
M883.595703,219.790588 
	C888.375671,221.091110 888.697571,226.026550 892.354553,228.864029 
	C892.505432,226.505371 892.618103,224.489441 892.768616,222.476364 
	C892.879395,220.996048 893.473267,219.916946 895.161255,219.857361 
	C897.017822,219.791824 898.010681,220.786377 898.033813,222.543106 
	C898.099548,227.532104 898.085510,232.522827 898.035461,237.512192 
	C898.023193,238.736801 897.515015,239.797119 896.141113,240.099335 
	C894.553650,240.448532 893.112671,240.145462 892.128601,238.784119 
	C890.402649,236.396515 888.760681,233.948318 886.916138,231.283661 
	C885.525940,233.612778 886.389160,235.864639 885.758972,237.873138 
	C885.307007,239.313950 884.549072,240.194107 882.926392,240.083694 
	C881.783142,240.005920 880.901733,239.454910 880.892151,238.321518 
	C880.844238,232.676575 880.850647,227.029755 880.962341,221.386063 
	C880.985352,220.225342 882.133301,219.914124 883.595703,219.790588 
z"/>
<path fill="#000000" opacity="1.000000" stroke="none" 
	d="
M797.999756,271.835541 
	C798.005066,270.195221 797.772705,268.965179 798.063232,267.874451 
	C798.936768,264.595337 795.199951,259.202271 802.134094,258.630341 
	C811.217712,257.881165 815.422852,260.293091 816.232971,266.650757 
	C817.069153,273.213074 814.137573,277.651215 808.108521,278.950653 
	C800.308105,280.631897 798.201355,279.247650 797.999756,271.835541 
M807.079163,263.550964 
	C802.846252,263.506958 804.142395,266.744598 804.045410,268.938446 
	C803.956360,270.954193 803.426453,273.717102 806.776978,273.669800 
	C810.050171,273.623596 810.717407,271.226929 810.713318,268.476929 
	C810.710083,266.288849 809.916748,264.617889 807.079163,263.550964 
z"/>
<path fill="#000000" opacity="1.000000" stroke="none" 
	d="
M841.082886,277.064880 
	C837.137146,272.581238 836.569580,267.817291 839.008423,262.962006 
	C841.014832,258.967560 844.855347,257.671814 849.093811,258.100830 
	C853.477112,258.544464 856.236938,261.067810 857.469238,265.412079 
	C858.783020,270.043182 857.843140,274.140930 854.275208,277.136993 
	C850.248535,280.518280 845.731689,280.112000 841.082886,277.064880 
M849.020142,274.105865 
	C850.144775,273.622009 851.093750,272.838928 851.404358,271.686127 
	C852.204102,268.718719 852.812073,265.583069 849.496521,263.724823 
	C847.511353,262.612183 845.465393,263.264618 844.375305,265.333191 
	C842.719238,268.476105 842.894897,271.473663 845.995300,273.729614 
	C846.601135,274.170441 847.552795,274.135895 849.020142,274.105865 
z"/>
<path fill="#000000" opacity="1.000000" stroke="none" 
	d="
M728.325806,278.117767 
	C727.381104,277.357635 726.628662,276.878082 726.229858,276.192780 
	C725.495483,274.930817 724.485291,273.389923 725.944641,272.156311 
	C727.381226,270.941895 728.985291,271.127991 730.255737,272.774841 
	C732.099121,275.164337 734.078613,275.521820 736.285034,273.245178 
	C735.357605,270.727112 733.146729,271.181427 731.543518,270.806519 
	C727.863098,269.945953 725.379639,268.143402 725.552124,264.117279 
	C725.731140,259.939270 728.904541,258.730896 732.334167,258.098114 
	C734.884705,257.627563 737.329041,258.124786 739.364075,259.799438 
	C740.790710,260.973419 742.388367,262.564484 741.130371,264.413605 
	C739.921143,266.191040 737.894348,265.719330 736.309814,264.457977 
	C734.939209,263.366974 733.635193,262.626709 731.946655,263.890717 
	C732.516785,266.249176 734.575195,265.974823 735.973206,266.335632 
	C739.819153,267.328125 742.519653,269.385620 742.031494,273.537140 
	C741.505371,278.011536 737.931152,279.137817 733.987549,279.328217 
	C732.136292,279.417603 730.344055,279.184204 728.325806,278.117767 
z"/>
<path fill="#000000" opacity="1.000000" stroke="none" 
	d="
M807.122009,219.616379 
	C809.328369,219.635666 811.540894,219.208694 811.568848,221.963593 
	C811.597046,224.742569 809.340515,224.240936 807.569336,224.395706 
	C805.978821,224.534698 804.213989,224.024124 802.710876,225.657425 
	C803.869751,227.633514 805.884155,226.864532 807.499939,227.143692 
	C809.145874,227.428070 811.035950,227.459839 811.037048,229.769836 
	C811.038086,232.117416 809.226685,232.128799 807.504822,232.255997 
	C805.792175,232.382492 803.833252,231.812302 802.356995,233.755112 
	C803.677612,236.478058 806.086548,235.379196 807.999878,235.555405 
	C809.645447,235.706955 811.640564,235.348633 811.753418,237.731201 
	C811.882874,240.462097 809.686768,240.323151 807.873962,240.314178 
	C794.376526,240.247421 796.814148,241.574249 796.735718,229.850082 
	C796.658325,218.286484 795.358154,219.860184 807.122009,219.616379 
z"/>
<path fill="#000000" opacity="1.000000" stroke="none" 
	d="
M859.323730,239.951965 
	C856.292175,233.886978 858.073975,227.743057 857.902527,221.714874 
	C857.863525,220.342911 859.130676,219.823990 860.388550,219.797775 
	C863.542114,219.732071 866.697144,219.703812 869.851318,219.714981 
	C871.319397,219.720184 872.488281,220.217224 872.490967,221.974411 
	C872.493591,223.682053 871.413879,224.150085 869.919678,224.359619 
	C867.892639,224.643860 865.569580,223.575836 863.698181,225.707977 
	C864.544739,228.162872 866.524841,227.271530 868.178650,227.245300 
	C869.955566,227.217133 871.718384,227.467255 871.773926,229.697754 
	C871.831299,232.007629 869.995056,232.073547 868.262634,232.212555 
	C866.707764,232.337326 864.842468,231.704468 863.755615,233.912750 
	C864.870422,236.565994 867.335327,235.339737 869.235229,235.580185 
	C870.736450,235.770187 872.445984,235.662460 872.579529,237.709747 
	C872.731506,240.041122 870.999329,240.342270 869.223145,240.323990 
	C866.070679,240.291550 862.918884,240.193481 859.323730,239.951965 
z"/>
<path fill="#000000" opacity="1.000000" stroke="none" 
	d="
M740.654297,222.771103 
	C738.159607,225.790314 734.226868,222.927368 731.642090,225.677902 
	C732.707214,228.434311 734.926575,227.277954 736.695190,227.374634 
	C738.187073,227.456192 739.907043,227.302704 740.100464,229.394714 
	C740.315430,231.719788 738.637878,231.989807 736.851746,232.197174 
	C735.138000,232.396133 733.130859,231.540833 731.643555,233.590027 
	C732.625793,236.785492 735.371155,235.321899 737.363098,235.617050 
	C739.010437,235.861191 740.967834,235.633423 740.846130,238.098770 
	C740.745972,240.128265 739.070190,240.144501 737.541565,240.307907 
	C726.201416,241.520142 725.681641,241.106140 725.748474,229.728119 
	C725.813232,218.702896 724.295654,219.716385 736.016113,219.730362 
	C737.931213,219.732651 740.716125,218.774963 740.654297,222.771103 
z"/>
<path fill="#000000" opacity="1.000000" stroke="none" 
	d="
M939.944458,219.680115 
	C940.747314,219.679108 941.089844,219.624741 941.409363,219.687393 
	C943.326233,220.063293 946.491943,218.635773 946.651123,221.783508 
	C946.839661,225.513138 943.404602,224.015488 941.376587,224.332550 
	C939.957214,224.554489 938.348816,224.204285 937.741760,225.881424 
	C938.070984,227.369156 939.047852,227.424301 940.079956,227.501602 
	C942.306885,227.668396 945.931274,225.971817 945.940063,229.760834 
	C945.948730,233.479507 942.159241,231.745880 939.983765,232.231293 
	C938.995422,232.451813 937.974426,232.470901 937.595703,234.087585 
	C938.795593,236.719772 941.440491,235.319244 943.477844,235.633728 
	C944.944885,235.860168 946.721558,235.651550 946.877930,237.697159 
	C947.057068,240.039230 945.264709,240.295258 943.515381,240.303757 
	C929.612305,240.371277 931.964539,241.290039 931.755981,229.757462 
	C931.740967,228.928070 931.754578,228.098145 931.756409,227.268478 
	C931.773010,219.729630 931.773071,219.729630 939.944458,219.680115 
z"/>
<path fill="#000000" opacity="1.000000" stroke="none" 
	d="
M784.539429,270.250244 
	C784.552307,267.026062 784.530518,264.201080 784.524475,261.376099 
	C784.521118,259.832825 785.158325,258.838348 786.832825,258.750183 
	C788.574158,258.658508 789.868225,259.311707 789.942810,261.162628 
	C790.116211,265.463989 790.749817,269.830414 789.448181,274.037262 
	C788.162659,278.191956 784.433655,280.046387 779.392639,279.237213 
	C775.288391,278.578461 772.731079,276.369873 772.682983,271.946655 
	C772.646851,268.623291 772.646484,265.299011 772.680054,261.975647 
	C772.695923,260.398987 772.960510,258.941681 775.026123,258.835083 
	C777.230530,258.721344 777.960999,260.063507 778.032227,261.934113 
	C778.127136,264.423950 778.083679,266.918793 778.150024,269.410156 
	C778.202942,271.396301 777.988159,273.770172 780.592896,274.218811 
	C783.069275,274.645355 784.069702,272.800385 784.539429,270.250244 
z"/>
<path fill="#000000" opacity="1.000000" stroke="none" 
	d="
M750.078857,240.214966 
	C748.153076,239.878281 747.572632,238.710007 748.472534,237.659866 
	C753.278015,232.051956 753.377136,226.509003 747.889893,220.967804 
	C752.570984,218.142700 754.440735,221.188293 756.536743,223.933655 
	C759.317139,222.629318 760.583435,217.853409 765.624390,220.788559 
	C759.597046,226.839050 760.436646,233.129700 766.452393,238.904602 
	C761.696899,240.712326 761.696899,240.712326 756.676025,235.230713 
	C754.146912,236.314560 754.090332,240.540497 750.078857,240.214966 
z"/>
<path fill="#000000" opacity="1.000000" stroke="none" 
	d="
M919.699219,226.747803 
	C917.533813,224.359726 915.319275,223.133484 913.077698,225.635010 
	C910.739563,228.244293 910.395508,231.523361 912.716919,234.293182 
	C914.765381,236.737335 917.070923,236.069534 918.975952,233.667053 
	C920.384094,231.891129 922.099365,232.118408 923.863770,233.074631 
	C923.640320,239.517944 917.155762,242.815643 910.909302,239.702606 
	C905.808289,237.160400 903.988647,229.574463 907.132507,223.957779 
	C909.662109,219.438507 916.745361,217.874847 921.148193,220.908096 
	C922.850342,222.080704 924.376099,223.641785 923.816162,225.825180 
	C923.326782,227.733215 921.509521,227.246567 919.699219,226.747803 
z"/>
<path fill="#000000" opacity="1.000000" stroke="none" 
	d="
M789.270142,227.726837 
	C788.199402,231.579926 785.879089,233.439240 782.304199,233.374588 
	C779.569763,233.325165 778.373230,234.408554 778.453308,237.156418 
	C778.498901,238.720596 778.073303,240.136093 776.030151,240.212799 
	C773.830505,240.295364 773.046082,238.916031 773.010742,237.102310 
	C772.920593,232.473099 772.962891,227.840622 773.002197,223.209885 
	C773.022644,220.800278 774.266968,219.838135 776.719849,219.620773 
	C785.584106,218.835251 788.554993,220.560959 789.270142,227.726837 
M783.310852,227.280884 
	C783.702393,224.846619 782.142334,224.503021 780.358765,224.723740 
	C778.901062,224.904144 778.472046,226.244675 778.969421,227.303497 
	C779.919922,229.326874 781.496216,228.796814 783.310852,227.280884 
z"/>
<path fill="#000000" opacity="1.000000" stroke="none" 
	d="
M753.851929,271.960724 
	C753.547668,268.033600 755.546509,263.417480 749.414307,262.894836 
	C748.555847,262.821655 748.256287,261.778381 748.334412,260.890533 
	C748.454956,259.519318 749.298584,258.773407 750.620056,258.742767 
	C754.761841,258.646851 758.905151,258.591766 763.047913,258.590393 
	C764.125793,258.590057 764.943359,259.154755 765.099426,260.345551 
	C765.268066,261.631958 764.927002,262.985718 763.572388,263.040466 
	C758.629333,263.240204 759.405579,266.757324 759.372559,269.857727 
	C759.353088,271.684875 759.369446,273.512695 759.326599,275.339203 
	C759.286987,277.026489 759.307434,278.857483 756.970154,279.002502 
	C754.459290,279.158264 753.980164,277.418915 753.909668,275.416473 
	C753.874695,274.420593 753.869263,273.423737 753.851929,271.960724 
z"/>
<path fill="#000000" opacity="1.000000" stroke="none" 
	d="
M824.509033,267.138794 
	C824.694702,263.902649 822.333679,259.406799 826.908691,259.021484 
	C832.124512,258.582245 829.706360,263.530640 830.030273,266.165680 
	C830.431335,269.427612 830.160400,272.780884 830.067078,276.091553 
	C830.012268,278.034546 828.972839,279.196533 826.906677,279.065186 
	C825.003967,278.944214 824.442200,277.681915 824.462036,275.982117 
	C824.494751,273.170288 824.512024,270.358307 824.509033,267.138794 
z"/>
<path fill="#000000" opacity="1.000000" stroke="none" 
	d="
M845.104980,239.900391 
	C842.496155,233.938934 843.936340,227.959152 843.796021,222.065933 
	C843.757690,220.456955 844.958252,219.787277 846.493347,219.817459 
	C847.790833,219.842957 848.962952,220.421005 848.988892,221.747391 
	C849.096069,227.218384 849.158447,232.697403 848.958496,238.163269 
	C848.890808,240.011429 847.174255,240.315689 845.104980,239.900391 
z"/>
</svg>